/vscmnt/brussel_pixiu_data/_data_brussel/112/vsc11236/PredSimResults/SUBJ11opt3D/trackIG/worker_05.mot
version=1
nRows=9
nColumns=50
inDegrees=yes
endheader
                time	         pelvis_tilt	         pelvis_list	     pelvis_rotation	           pelvis_tx	           pelvis_ty	           pelvis_tz	       hip_flexion_r	     hip_adduction_r	      hip_rotation_r	        knee_angle_r	       ankle_angle_r	         mtp_angle_r	       hip_flexion_l	     hip_adduction_l	      hip_rotation_l	        knee_angle_l	       ankle_angle_l	         mtp_angle_l	    lumbar_extension	      lumbar_bending	     lumbar_rotation	 ercspn_r/activation	 intobl_r/activation	 extobl_r/activation	    abd_r/activation	    add_r/activation	hamstrings_r/activation	bifemsh_r/activation	glut_max_r/activation	iliopsoas_r/activation	rect_fem_r/activation	  vasti_r/activation	gastroc_r/activation	 soleus_r/activation	tib_ant_r/activation	 ercspn_l/activation	 intobl_l/activation	 extobl_l/activation	    abd_l/activation	    add_l/activation	hamstrings_l/activation	bifemsh_l/activation	glut_max_l/activation	iliopsoas_l/activation	rect_fem_l/activation	  vasti_l/activation	gastroc_l/activation	 soleus_l/activation	tib_ant_l/activation	
          0.00000000	         -2.95285525	         -0.70211423	          5.39492223	          0.00000000	          0.94355721	         -0.00589936	         30.45364639	         -2.17354424	         -3.91220699	         -9.87826003	          1.14232133	          0.25202802	        -13.02052630	         -2.78799494	         -2.88456609	        -12.44766165	         12.65943536	         28.36800030	        -14.48423479	         -2.52015236	         -3.40273363	          0.02286946	          0.22131916	          0.06217495	          0.00999999	          0.18696478	          0.02299211	          0.10655069	          0.07240175	          0.08696366	          0.04052509	          0.01422750	          0.01000000	          0.00999999	          0.39321234	          0.01000003	          0.01000000	          0.01000000	          0.03653376	          0.01331309	          0.01242233	          0.15938995	          0.01694266	          0.05498338	          0.01237408	          0.01000000	          0.12989143	          0.29652798	          0.01237411	
          0.01424465	         -3.08551909	         -0.75014117	          5.44461178	          0.01814695	          0.94153223	         -0.00444276	         30.07467880	         -1.99544633	         -4.04035494	        -10.82397051	          0.64442839	          0.20964433	        -13.58007714	         -3.03848338	         -3.23877232	        -13.13573472	         11.88409632	         30.09620743	        -14.04250137	         -2.01764016	         -3.64197814	          0.01848171	          0.17885666	          0.05024600	          0.03732549	          0.16203829	          0.04563233	          0.08610778	          0.09049689	          0.07027873	          0.03274991	          0.01149780	          0.01237411	          0.01237410	          0.43542041	          0.01000002	          0.00999999	          0.01000031	          0.02952436	          0.01075884	          0.01319278	          0.12880924	          0.01369204	          0.04443422	          0.01000000	          0.01000001	          0.10497033	          0.27614524	          0.01000000	
          0.02848931	         -3.19801704	         -0.80147103	          5.47018436	          0.03658597	          0.93992203	         -0.00290709	         29.68689720	         -1.83622784	         -4.22183504	        -11.81316922	         -0.01045269	          0.20398897	        -13.99239914	         -3.30644071	         -3.59802342	        -14.11944152	         10.93252788	         31.89640491	        -13.58083414	         -1.50561387	         -3.87061168	          0.02597371	          0.14454104	          0.04060575	          0.08204002	          0.20105958	          0.04083364	          0.06958706	          0.10099115	          0.05679498	          0.02646649	          0.02023698	          0.01000000	          0.00999999	          0.50221739	          0.01942289	          0.00999999	          0.01000000	          0.02385978	          0.01000000	          0.01066161	          0.10409578	          0.01106507	          0.03590903	          0.01000018	          0.01000001	          0.08483062	          0.25114222	          0.00999999	
          0.04273396	         -3.28970897	         -0.84359822	          5.46923051	          0.05504427	          0.93891510	         -0.00129533	         29.40318904	         -1.70230514	         -4.46732602	        -12.98933876	         -0.72827676	          0.16203749	        -14.15706982	         -3.58229523	         -3.96364002	        -15.53683660	          9.77888856	         33.76240526	        -13.13252086	         -1.00082361	         -4.08413341	          0.02755169	          0.11680925	          0.03281509	          0.11079294	          0.23158383	          0.04506896	          0.05623603	          0.08337230	          0.04589824	          0.02138860	          0.08026398	          0.01000000	          0.00999999	          0.55003953	          0.05037923	          0.00999999	          0.01000000	          0.01928202	          0.02673521	          0.02098779	          0.08412386	          0.01237402	          0.02901949	          0.01000002	          0.01186711	          0.06855493	          0.22129905	          0.00999999	
          0.05697861	         -3.36105419	         -0.87663237	          5.44565661	          0.07339945	          0.93862831	          0.00037516	         29.16970496	         -1.57825718	         -4.71133184	        -14.32901301	         -1.13312286	          0.10987913	        -14.00306372	         -3.87093408	         -4.34074634	        -17.48877668	          8.41753990	         35.61849802	        -12.70646496	         -0.50610456	         -4.28233440	          0.02236468	          0.09439811	          0.02651916	          0.13106378	          0.25769782	          0.04915377	          0.04544655	          0.09979599	          0.03709216	          0.01728497	          0.12747062	          0.01000000	          0.00999999	          0.55580284	          0.07439694	          0.01000000	          0.01000000	          0.01558255	          0.09652604	          0.03023683	          0.06798378	          0.01000000	          0.02345178	          0.01000001	          0.01117817	          0.05540192	          0.17884040	          0.00999999	
          0.07122327	         -3.41430819	         -0.89805741	          5.39677317	          0.09145559	          0.93918798	          0.00207382	         28.92060907	         -1.45073939	         -4.89931548	        -15.72339003	         -1.09546740	          0.06255552	        -13.43338106	         -4.17435240	         -4.73247882	        -20.11341641	          6.86981636	         37.28028116	        -12.32024594	         -0.02399143	         -4.45976848	          0.01807379	          0.07628680	          0.02143117	          0.14365286	          0.28486566	          0.05170857	          0.03672715	          0.10973679	          0.02997562	          0.01396866	          0.14323463	          0.01000000	          0.00999999	          0.51799154	          0.09465050	          0.01000000	          0.01000000	          0.01259287	          0.14636608	          0.04710451	          0.05494035	          0.00999999	          0.01895230	          0.01000000	          0.00999999	          0.04477245	          0.14452790	          0.00999999	
          0.08546792	         -3.45023354	         -0.90235999	          5.32008272	          0.10906529	          0.94058176	          0.00376024	         28.61477625	         -1.31792298	         -5.00488422	        -17.08076292	         -0.64228108	          0.05014422	        -12.39256105	         -4.49301024	         -5.16809655	        -23.48262089	          5.20476458	         38.41307318	        -11.98595323	          0.44217108	         -4.61135103	          0.01460614	          0.06165034	          0.01731936	          0.14975062	          0.30554659	          0.05617020	          0.02968069	          0.10448354	          0.02422447	          0.01128863	          0.15817236	          0.01000000	          0.00999999	          0.44300125	          0.09961354	          0.01000005	          0.01000000	          0.01017679	          0.19222596	          0.05283018	          0.04439945	          0.00999999	          0.01531610	          0.01000000	          0.00999999	          0.03618236	          0.11679863	          0.00999999	
          0.09971257	         -3.46915059	         -0.87477713	          5.21191968	          0.12617828	          0.94272471	          0.00539180	         28.18014385	         -1.18856880	         -5.02097164	        -18.24661088	          0.10699332	          0.13866916	        -10.87739577	         -4.82721344	         -5.68524839	        -27.60828564	          3.58822500	         38.46401401	        -11.70610308	          0.87976648	         -4.73227075	          0.01180380	          0.04982204	          0.01399645	          0.14603415	          0.29877390	          0.05970786	          0.02398640	          0.10233222	          0.01957674	          0.01000001	          0.18103892	          0.01000000	          0.00999999	          0.36271388	          0.09194391	          0.01000044	          0.01000004	          0.00999999	          0.24547576	          0.04948151	          0.03588094	          0.00999999	          0.01237754	          0.00999999	          0.00999999	          0.02924038	          0.09438953	          0.00999999	
          0.11395722	         -3.47219168	         -0.79529995	          5.06357852	          0.14279090	          0.94553947	          0.00693244	         27.53117237	         -1.08020131	         -4.96317109	        -19.03004580	          0.92259006	          0.34993868	         -8.93514009	         -5.17077492	         -6.28336803	        -32.33988612	          1.81431689	         37.53311090	        -11.48061557	          1.27044154	         -4.81539517	          0.01000002	          0.04026314	          0.01131108	          0.12945223	          0.27907780	          0.06306922	          0.02177645	          0.08269875	          0.01582073	          0.01000000	          0.20239956	          0.01000000	          0.00999999	          0.30292323	          0.07430351	          0.01000001	          0.03717028	          0.00999999	          0.28412743	          0.03998794	          0.04009065	          0.00999999	          0.01000277	          0.00999999	          0.00999999	          0.02363029	          0.07627986	          0.00999999	
